# xmcd
#
# Track frame offsets: 
#        150
#        14713
#        34174
#        50877
#        69607
#        83112
#        98094
#        116364
#        139078
#        155927
#        171810
#        193716
#
# Disc length: 2838 seconds
#
# Revision: 0
# Processed by: cddbd v1.5.2PL0 Copyright (c) Steve Scherf et al.
# Submitted via: ExactAudioCopy v1.1
#
DISCID=ab0b140c
DTITLE=Donna Taggart - Celtic Lady Volume 2
DYEAR=2013
DGENRE=Country
TTITLE0=The Lucky One
TTITLE1=All The Lies
TTITLE2=Hard Times
TTITLE3=Jealous Of The Angels
TTITLE4=Blue Eyes Crying In The Rain
TTITLE5=Living In These Troubled Times
TTITLE6=Changed
TTITLE7=Peggy Gordon
TTITLE8=When The Right One Comes Along
TTITLE9=Speed Of The Sound Of Loneliness
TTITLE10=Thorn Upon The Rose
TTITLE11=I Will Carry You
EXTD=
EXTT0=
EXTT1=
EXTT2=
EXTT3=
EXTT4=
EXTT5=
EXTT6=
EXTT7=
EXTT8=
EXTT9=
EXTT10=
EXTT11=
PLAYORDER=
